<svg xmlns="http://www.w3.org/2000/svg" viewBox="0 0 50.34 8.94"><g data-name="Layer 2"><path d="M43.3 3.62a8.52 8.52 0 0 1 .12-1c.16-.63.41-.77 1.11-.9a8.51 8.51 0 0 1 1.33-.1 8.8 8.8 0 0 1 1.36.1c1.14.2 1.36.49 1.36 1.87ZM47.21.08A12.22 12.22 0 0 0 45.86 0a9.88 9.88 0 0 0-1.33.07c-1.42.18-2.22.48-2.71 1.67a7.25 7.25 0 0 0-.42 2.69A7.73 7.73 0 0 0 41.77 7c.49 1.33 1.26 1.65 2.76 1.85a8.47 8.47 0 0 0 1.33.07 12.77 12.77 0 0 0 1.38-.08c1.37-.19 2.3-.61 2.76-1.93l-1.77-.42c-.19.42-.46.51-1 .63a6.16 6.16 0 0 1-1.36.15 6.53 6.53 0 0 1-1.32-.1c-.74-.13-.95-.3-1.12-1a5.58 5.58 0 0 1-.12-1h7c.15-3.31-.26-4.71-3.1-5.09Zm-8.75.07-2.88 7-2.87-7h-2l3.52 8.57h2.69L40.45.15Zm-27.33 0v8.57H13V6.07h2.32l1.74 2.65h2.09l-1.82-2.83c1.22 0 2.09-1.16 2.09-2.76s-.76-3-2.81-3ZM13 1.81h3.53c.83 0 1 .64 1.08 1.32s-.25 1.36-1.08 1.36H13ZM0 4.44a7.84 7.84 0 0 0 .39 2.63c.53 1.3 1.33 1.55 2.73 1.74a12.19 12.19 0 0 0 1.34.08 11.9 11.9 0 0 0 1.34-.08c1.46-.19 2.3-.58 2.79-1.74a3.64 3.64 0 0 0 .23-.86L7.05 5.8c-.21.86-.48 1-1.23 1.18a6.87 6.87 0 0 1-1.36.11A7.55 7.55 0 0 1 3.12 7c-.68-.13-.82-.3-1-.87a6.41 6.41 0 0 1-.2-1.69 6.57 6.57 0 0 1 .18-1.65c.17-.57.31-.74 1-.87a8.57 8.57 0 0 1 1.34-.13 6.2 6.2 0 0 1 1.36.12c.75.15 1 .32 1.23 1.17l1.77-.4a3.78 3.78 0 0 0-.23-.86C8.1.66 7.26.27 5.8.08a10.92 10.92 0 0 0-2.68 0C1.72.27.92.52.39 1.82A7.79 7.79 0 0 0 0 4.44ZM29.43 2.9c0-2.3-1.61-2.9-4.21-2.9A13.14 13.14 0 0 0 22 .41L22.45 2a11.26 11.26 0 0 1 2.77-.31c1.71 0 2.48.12 2.37 1.74a17 17 0 0 0-2.37-.13c-2.77.05-4.22.39-4.22 2.63s1.42 3 4.19 3a14.24 14.24 0 0 0 4.21-.49ZM27.59 5v2.07a13.36 13.36 0 0 1-2.37.15c-1.78 0-2.37 0-2.37-1.29 0-1 .83-1.08 2.37-1.08a18.62 18.62 0 0 1 2.37.15Z" style="fill:#00c1f3" data-name="Layer 1"/></g></svg>